<?xml version="1.0" encoding="UTF-8"?>
<svg version="1.1" xmlns="http://www.w3.org/2000/svg" width="1024" height="1024">
<path d="M0 0 C1.16764893 0.35288086 1.16764893 0.35288086 2.35888672 0.71289062 C35.30015033 10.92744486 64.71085719 28.87489665 90.42480469 51.60839844 C91.89335958 52.90578884 93.37208262 54.19164436 94.8515625 55.4765625 C100.014322 60.01542358 104.59211097 64.73603335 109 70 C109.80953125 70.91007812 110.6190625 71.82015625 111.453125 72.7578125 C142.48785819 107.88497594 160.03342253 153.60077085 164 200 C164.11214844 201.27488281 164.22429687 202.54976562 164.33984375 203.86328125 C169.18941603 266.77485589 148.79497687 329.98483625 108.36621094 378.40917969 C105.08703683 382.22746034 101.66776978 385.91322544 98.21484375 389.57421875 C95.89849492 391.98825398 95.89849492 391.98825398 94 395 C93.34 395 92.68 395 92 395 C92 395.66 92 396.32 92 397 C91.34 397 90.68 397 90 397 C90 397.66 90 398.32 90 399 C88.56640625 400.4453125 88.56640625 400.4453125 86.5625 402.125 C83.28199752 404.89889207 83.28199752 404.89889207 80.09765625 407.78125 C34.64107378 450.26740233 -28.13973877 468.73477916 -89.25 466.8125 C-144.66427547 464.42067247 -196.62626235 443.58404521 -238.46337891 407.30712891 C-239.53436387 406.39609403 -240.62144854 405.50379372 -241.72021484 404.62646484 C-243.18021474 403.45820826 -244.59447078 402.2332521 -246 401 C-246 400.34 -246 399.68 -246 399 C-246.59425781 398.7421875 -247.18851562 398.484375 -247.80078125 398.21875 C-250.19302503 396.89303053 -251.44781639 395.59621136 -253.1875 393.5 C-255.80061166 390.39866365 -258.48312858 387.40235864 -261.25 384.4375 C-281.2658991 362.12247736 -295.87355528 335.10148853 -305.48950195 306.84204102 C-305.79202881 305.96088623 -306.09455566 305.07973145 -306.40625 304.171875 C-306.66728516 303.3890918 -306.92832031 302.60630859 -307.19726562 301.79980469 C-307.85802885 299.80652854 -307.85802885 299.80652854 -310 299 C-309.67 298.01 -309.34 297.02 -309 296 C-309.27151849 294.01898941 -309.27151849 294.01898941 -309.890625 291.88671875 C-310.21111816 290.65139404 -310.21111816 290.65139404 -310.53808594 289.39111328 C-310.77301758 288.4989209 -311.00794922 287.60672852 -311.25 286.6875 C-326.20866065 226.26156497 -315.77473861 161.23378624 -283.98046875 107.84765625 C-278.22724882 98.4446335 -272.005791 89.51121154 -265 81 C-264.5575293 80.45601563 -264.11505859 79.91203125 -263.65917969 79.3515625 C-252.4600646 65.65060141 -240.0901046 52.74442169 -226 42 C-224.80061147 41.06011245 -223.60140507 40.11999245 -222.40234375 39.1796875 C-204.62518111 25.39258942 -185.44338601 15.02168103 -164.875 6.0625 C-163.98578857 5.67239746 -163.09657715 5.28229492 -162.18041992 4.88037109 C-157.73785309 2.98215652 -153.79992144 1.72842258 -149 1 C-148.67 0.34 -148.34 -0.32 -148 -1 C-145.5974182 -1.73403655 -143.26061656 -2.33500256 -140.8125 -2.875 C-140.05638428 -3.04499512 -139.30026855 -3.21499023 -138.52124023 -3.39013672 C-136.01721915 -3.94219238 -133.50956956 -4.47376929 -131 -5 C-130.16146484 -5.17853516 -129.32292969 -5.35707031 -128.45898438 -5.54101562 C-86.01815143 -14.41647499 -41.52199031 -12.5565977 0 0 Z M-109 102 C-109.66547852 102.18191895 -110.33095703 102.36383789 -111.01660156 102.55126953 C-144.82629887 111.97654389 -172.11406437 135.49449683 -189.30249023 165.59716797 C-198.41829518 182.20701513 -204.33377776 202.01266617 -205 221 C-205.0515625 222.27359375 -205.103125 223.5471875 -205.15625 224.859375 C-206.19099528 263.08913437 -192.31362557 295.12097548 -166.9765625 323.24609375 C-144.34669209 346.97403804 -112.20912027 358.33471131 -80 360 C-79.21496094 360.04253906 -78.42992187 360.08507812 -77.62109375 360.12890625 C-46.19107384 360.94881981 -15.81570591 350.01381279 9 331 C9 330.34 9 329.68 9 329 C9.55558594 328.75765625 10.11117187 328.5153125 10.68359375 328.265625 C25.72472979 320.04753381 37.76473967 301.06871146 45 286 C45.51175781 284.95972656 46.02351562 283.91945313 46.55078125 282.84765625 C61.98207227 250.22525038 62.46781243 212.4368662 50.47265625 178.65234375 C37.24017832 145.83439451 12.62009001 120.70368932 -19.87841797 106.86376953 C-25.80192432 104.45210492 -31.80003012 102.55905675 -38 101 C-39.2684375 100.6803125 -40.536875 100.360625 -41.84375 100.03125 C-63.06959446 95.37525831 -88.18119732 96.02723176 -109 102 Z " fill="#000000" transform="translate(518,161)"/>
<path d="M0 0 C0.66 0 1.32 0 2 0 C3.46728516 1.4753418 3.46728516 1.4753418 5.1640625 3.51171875 C8.76739546 7.74978263 12.54134742 11.7835622 16.375 15.8125 C21.43864433 21.17480931 26.29896505 26.58918256 30.890625 32.36328125 C33.22062666 35.27578333 35.64067361 38.10102758 38.0625 40.9375 C42.84496289 46.69117074 47.06909267 52.63984094 51 59 C51.61246582 59.97888184 51.61246582 59.97888184 52.23730469 60.97753906 C74.66607402 97.13956523 87.48447854 138.39404766 87.375 181 C87.37418427 182.2065625 87.37418427 182.2065625 87.37335205 183.4375 C87.33060785 197.26883859 86.24611727 210.51156753 83 224 C82.78569336 224.89525391 82.57138672 225.79050781 82.35058594 226.71289062 C70.18623839 275.83064914 39.24684631 321.92921357 -4 349 C-36.41861651 367.88175379 -68.57349849 374.98558583 -105.80078125 376.81176758 C-106.50613132 376.8468297 -107.2114814 376.88189182 -107.93820572 376.91801643 C-121.93422579 377.60574065 -135.93446982 378.03265645 -149.94316101 378.36186695 C-158.8199567 378.57601389 -167.67839096 378.87225423 -176.54394531 379.37426758 C-240.54391822 382.92839763 -240.54391822 382.92839763 -261.32375526 364.58958995 C-271.29869887 355.45052017 -279.88510558 344.83757671 -287.62068176 333.77173901 C-288.89422008 331.87328851 -288.89422008 331.87328851 -291 331 C-291 330.34 -291 329.68 -291 329 C-291.99 328.67 -292.98 328.34 -294 328 C-294 327.34 -294 326.68 -294 326 C-294.66 326 -295.32 326 -296 326 C-297.71242017 324.38037883 -299.3715501 322.70402655 -301 321 C-301.81594131 320.18405869 -302.63188263 319.36811737 -303.47254944 318.52745056 C-319.31503296 302.68496704 -335.15751648 286.84248352 -351 271 C-351.76239487 270.27885513 -352.52478973 269.55771027 -353.31028748 268.81471252 C-355 267 -355 267 -355 265 C-345.04140831 264.85472426 -335.08266458 264.72312784 -325.12381744 264.59674835 C-323.33863275 264.57398871 -321.55345101 264.55099522 -319.7682724 264.52776337 C-291.54597744 264.16059419 -263.32479166 263.95664679 -235.10049492 263.84905046 C-228.52802144 263.82398429 -221.95556086 263.79662742 -215.38310242 263.76789856 C-213.48981001 263.75968016 -211.59651758 263.75146554 -209.70322514 263.74325466 C-206.85147289 263.73088332 -203.99972078 263.71848643 -201.14796913 263.70598042 C-189.71672964 263.65610384 -178.28554038 263.61597182 -166.85422021 263.59035581 C-159.53076509 263.57321017 -152.20739566 263.54539467 -144.88400668 263.5099259 C-140.58922245 263.48955153 -136.29456615 263.47420298 -131.99973106 263.47194099 C-128.00222345 263.46978355 -124.00500253 263.45370589 -120.00758278 263.42745864 C-118.5620756 263.42034442 -117.11653336 263.41808667 -115.67101276 263.42152607 C-103.97980393 263.44493436 -91.87183747 262.67418972 -81 258 C-79.54462844 257.613665 -78.08611829 257.23899789 -76.625 256.875 C-63.74676421 253.00961571 -52.44615981 245.46144486 -43 236 C-42.67 235.01 -42.34 234.02 -42 233 C-41.34 233 -40.68 233 -40 233 C-38.44941129 230.96808905 -37.05620382 228.96344066 -35.6875 226.8125 C-35.0840979 225.86769775 -35.0840979 225.86769775 -34.46850586 224.90380859 C-24.94077701 209.52187733 -21.53995587 192.45573754 -24.9375 174.6875 C-27.16256001 166.28868194 -31.06628767 158.49241645 -34.75195312 150.65673828 C-36.82492758 146.24396284 -38.85398414 141.81175482 -40.875 137.375 C-41.42824951 136.18668579 -41.42824951 136.18668579 -41.99267578 134.97436523 C-46.0819563 126.01837086 -48.51413797 117.8942554 -48.375 108 C-48.38660156 107.175 -48.39820313 106.35 -48.41015625 105.5 C-48.36118843 95.05353089 -44.59670814 86.61797728 -39.8125 77.5 C-38.89888068 75.7413781 -37.98854514 73.98104504 -37.08203125 72.21875 C-36.48225464 71.0730957 -36.48225464 71.0730957 -35.87036133 69.90429688 C-34.86143638 68.04579312 -34.86143638 68.04579312 -35 66 C-34.34 66 -33.68 66 -33 66 C-32.72816895 65.1236792 -32.45633789 64.2473584 -32.17626953 63.34448242 C-31.06689399 60.19019941 -29.76398789 57.42688621 -28.1796875 54.48828125 C-27.64472656 53.48345703 -27.10976563 52.47863281 -26.55859375 51.44335938 C-25.42955719 49.34377051 -24.29933481 47.24481891 -23.16796875 45.14648438 C-22.63558594 44.14552734 -22.10320312 43.14457031 -21.5546875 42.11328125 C-20.81968018 40.74876831 -20.81968018 40.74876831 -20.06982422 39.35668945 C-18.79332243 36.97607302 -18.79332243 36.97607302 -19 34 C-18.36698975 33.36783569 -18.36698975 33.36783569 -17.72119141 32.72290039 C-15.31517096 30.31449098 -13.97982115 27.44000081 -12.4609375 24.43359375 C-11.97145126 23.48154808 -11.97145126 23.48154808 -11.47207642 22.51026917 C-10.43430601 20.48873194 -9.40457843 18.46321962 -8.375 16.4375 C-7.67500398 15.07069464 -6.97448874 13.70415505 -6.2734375 12.33789062 C-3.11608103 6.1794121 -3.11608103 6.1794121 0 0 Z " fill="#000000" transform="translate(739,414)"/>
<path d="M0 0 C4.95 0 9.9 0 15 0 C15 0.33 15 0.66 15 1 C10.05 1 5.1 1 0 1 C0 0.67 0 0.34 0 0 Z " fill="#000000" transform="translate(527,791)"/>
<path d="M0 0 C3.96 0 7.92 0 12 0 C12 0.33 12 0.66 12 1 C8.04 1 4.08 1 0 1 C0 0.67 0 0.34 0 0 Z " fill="#000000" transform="translate(507,791)"/>
<path d="M0 0 C3.96 0 7.92 0 12 0 C12 0.33 12 0.66 12 1 C8.04 1 4.08 1 0 1 C0 0.67 0 0.34 0 0 Z " fill="#000000" transform="translate(612,676)"/>
<path d="M0 0 C2.31 0 4.62 0 7 0 C7 0.33 7 0.66 7 1 C4.69 1 2.38 1 0 1 C0 0.67 0 0.34 0 0 Z " fill="#000000" transform="translate(544,791)"/>
<path d="M0 0 C2.31 0 4.62 0 7 0 C7 0.33 7 0.66 7 1 C4.69 1 2.38 1 0 1 C0 0.67 0 0.34 0 0 Z " fill="#000000" transform="translate(585,676)"/>
<path d="M0 0 C2.31 0 4.62 0 7 0 C7 0.33 7 0.66 7 1 C4.69 1 2.38 1 0 1 C0 0.67 0 0.34 0 0 Z " fill="#000000" transform="translate(569,676)"/>
<path d="M0 0 C1.98 0 3.96 0 6 0 C6 0.33 6 0.66 6 1 C4.02 1 2.04 1 0 1 C0 0.67 0 0.34 0 0 Z " fill="#000000" transform="translate(584,791)"/>
<path d="M0 0 C1.98 0 3.96 0 6 0 C6 0.33 6 0.66 6 1 C4.02 1 2.04 1 0 1 C0 0.67 0 0.34 0 0 Z " fill="#000000" transform="translate(576,791)"/>
<path d="M0 0 C1.98 0 3.96 0 6 0 C6 0.33 6 0.66 6 1 C4.02 1 2.04 1 0 1 C0 0.67 0 0.34 0 0 Z " fill="#000000" transform="translate(568,791)"/>
<path d="M0 0 C1.98 0 3.96 0 6 0 C6 0.33 6 0.66 6 1 C4.02 1 2.04 1 0 1 C0 0.67 0 0.34 0 0 Z " fill="#000000" transform="translate(552,791)"/>
<path d="M0 0 C1.98 0 3.96 0 6 0 C6 0.33 6 0.66 6 1 C4.02 1 2.04 1 0 1 C0 0.67 0 0.34 0 0 Z " fill="#000000" transform="translate(520,791)"/>
<path d="M0 0 C1.65 0 3.3 0 5 0 C5 0.33 5 0.66 5 1 C3.35 1 1.7 1 0 1 C0 0.67 0 0.34 0 0 Z " fill="#000000" transform="translate(598,676)"/>
<path d="M0 0 C4 1 4 1 4 1 Z " fill="#000000" transform="translate(563,791)"/>
<path d="M0 0 C4 1 4 1 4 1 Z " fill="#000000" transform="translate(580,676)"/>
<path d="M0 0 C4 1 4 1 4 1 Z " fill="#000000" transform="translate(564,676)"/>
<path d="M0 0 C3 1 3 1 3 1 Z " fill="#000000" transform="translate(640,791)"/>
<path d="M0 0 C3 1 3 1 3 1 Z " fill="#000000" transform="translate(632,791)"/>
<path d="M0 0 C3 1 3 1 3 1 Z " fill="#000000" transform="translate(624,791)"/>
<path d="M0 0 C3 1 3 1 3 1 Z " fill="#000000" transform="translate(600,791)"/>
<path d="M0 0 C3 1 3 1 3 1 Z " fill="#000000" transform="translate(559,791)"/>
<path d="M0 0 C3 1 3 1 3 1 Z " fill="#000000" transform="translate(441,677)"/>
<path d="M0 0 C3 1 3 1 3 1 Z " fill="#000000" transform="translate(605,676)"/>
<path d="" fill="#000000" transform="translate(0,0)"/>
<path d="M0 0 C2 1 2 1 2 1 Z " fill="#000000" transform="translate(616,791)"/>
<path d="M0 0 C2 1 2 1 2 1 Z " fill="#000000" transform="translate(604,791)"/>
<path d="M0 0 C2 1 2 1 2 1 Z " fill="#000000" transform="translate(597,791)"/>
<path d="M0 0 C2 1 2 1 2 1 Z " fill="#000000" transform="translate(594,791)"/>
<path d="M0 0 C2 1 2 1 2 1 Z " fill="#000001" transform="translate(504,791)"/>
<path d="M0 0 C2 1 2 1 2 1 Z " fill="#000000" transform="translate(501,791)"/>
<path d="M0 0 C2 1 2 1 2 1 Z " fill="#010000" transform="translate(656,790)"/>
<path d="M0 0 C2 1 2 1 2 1 Z " fill="#000000" transform="translate(434,677)"/>
<path d="M0 0 C2 1 2 1 2 1 Z " fill="#000000" transform="translate(418,677)"/>
<path d="M0 0 C2 1 2 1 2 1 Z " fill="#000001" transform="translate(410,677)"/>
<path d="M0 0 C2 1 2 1 2 1 Z " fill="#000001" transform="translate(402,677)"/>
<path d="M0 0 C2 1 2 1 2 1 Z " fill="#000000" transform="translate(609,676)"/>
<path d="M0 0 C2 1 2 1 2 1 Z " fill="#000000" transform="translate(577,676)"/>
<path d="M0 0 C2 1 2 1 2 1 Z " fill="#000000" transform="translate(561,676)"/>
<path d="M0 0 C2 1 2 1 2 1 Z " fill="#000000" transform="translate(556,676)"/>
<path d="M0 0 C2 1 2 1 2 1 Z " fill="#000000" transform="translate(421,628)"/>
<path d="M0 0 C2 1 2 1 2 1 Z " fill="#000000" transform="translate(418,628)"/>
<path d="" fill="#000000" transform="translate(0,0)"/>
<path d="" fill="#010000" transform="translate(0,0)"/>
<path d="" fill="#010000" transform="translate(0,0)"/>
<path d="" fill="#020302" transform="translate(0,0)"/>
<path d="M0 0 C2 1 2 1 2 1 Z " fill="#000000" transform="translate(677,439)"/>
<path d="M0 0 C2 1 2 1 2 1 Z " fill="#000100" transform="translate(465,261)"/>
<path d="M0 0 C2 1 2 1 2 1 Z " fill="#030202" transform="translate(244,249)"/>
<path d="M0 0 C2 1 2 1 2 1 Z " fill="#010000" transform="translate(558,176)"/>
<path d="M0 0 C2 1 2 1 2 1 Z " fill="#000000" transform="translate(518,160)"/>
<path d="M0 0 C2 1 2 1 2 1 Z " fill="#000000" transform="translate(486,152)"/>
<path d="M0 0 C2 1 2 1 2 1 Z " fill="#020201" transform="translate(400,152)"/>
<path d="" fill="#636463" transform="translate(0,0)"/>
<path d="" fill="#010100" transform="translate(0,0)"/>
<path d="" fill="#000000" transform="translate(0,0)"/>
<path d="" fill="#000100" transform="translate(0,0)"/>
<path d="" fill="#000100" transform="translate(0,0)"/>
<path d="" fill="#010000" transform="translate(0,0)"/>
<path d="" fill="#000000" transform="translate(0,0)"/>
<path d="" fill="#010001" transform="translate(0,0)"/>
<path d="" fill="#000000" transform="translate(0,0)"/>
<path d="" fill="#000100" transform="translate(0,0)"/>
<path d="" fill="#000000" transform="translate(0,0)"/>
<path d="" fill="#000000" transform="translate(0,0)"/>
<path d="" fill="#020200" transform="translate(0,0)"/>
<path d="" fill="#000000" transform="translate(0,0)"/>
<path d="" fill="#010001" transform="translate(0,0)"/>
<path d="" fill="#010000" transform="translate(0,0)"/>
<path d="" fill="#050403" transform="translate(0,0)"/>
<path d="" fill="#050404" transform="translate(0,0)"/>
<path d="" fill="#010000" transform="translate(0,0)"/>
<path d="" fill="#060502" transform="translate(0,0)"/>
<path d="" fill="#000000" transform="translate(0,0)"/>
<path d="" fill="#000000" transform="translate(0,0)"/>
<path d="" fill="#000000" transform="translate(0,0)"/>
<path d="" fill="#000201" transform="translate(0,0)"/>
<path d="" fill="#010000" transform="translate(0,0)"/>
<path d="" fill="#000000" transform="translate(0,0)"/>
<path d="" fill="#000100" transform="translate(0,0)"/>
<path d="" fill="#000000" transform="translate(0,0)"/>
<path d="" fill="#000000" transform="translate(0,0)"/>
<path d="" fill="#000000" transform="translate(0,0)"/>
<path d="" fill="#000000" transform="translate(0,0)"/>
<path d="" fill="#000000" transform="translate(0,0)"/>
<path d="" fill="#000000" transform="translate(0,0)"/>
<path d="" fill="#010000" transform="translate(0,0)"/>
<path d="" fill="#020403" transform="translate(0,0)"/>
<path d="" fill="#000000" transform="translate(0,0)"/>
<path d="" fill="#040303" transform="translate(0,0)"/>
<path d="" fill="#000000" transform="translate(0,0)"/>
<path d="" fill="#000100" transform="translate(0,0)"/>
<path d="" fill="#000000" transform="translate(0,0)"/>
<path d="" fill="#000000" transform="translate(0,0)"/>
<path d="" fill="#000000" transform="translate(0,0)"/>
<path d="" fill="#010000" transform="translate(0,0)"/>
<path d="" fill="#000000" transform="translate(0,0)"/>
<path d="" fill="#000000" transform="translate(0,0)"/>
<path d="" fill="#000001" transform="translate(0,0)"/>
<path d="" fill="#000000" transform="translate(0,0)"/>
<path d="" fill="#000000" transform="translate(0,0)"/>
<path d="" fill="#000000" transform="translate(0,0)"/>
<path d="" fill="#000000" transform="translate(0,0)"/>
<path d="" fill="#000001" transform="translate(0,0)"/>
<path d="" fill="#000000" transform="translate(0,0)"/>
<path d="" fill="#000000" transform="translate(0,0)"/>
<path d="" fill="#000000" transform="translate(0,0)"/>
<path d="" fill="#000001" transform="translate(0,0)"/>
<path d="" fill="#000000" transform="translate(0,0)"/>
<path d="" fill="#010001" transform="translate(0,0)"/>
<path d="" fill="#000000" transform="translate(0,0)"/>
<path d="" fill="#000000" transform="translate(0,0)"/>
<path d="" fill="#010000" transform="translate(0,0)"/>
<path d="" fill="#000000" transform="translate(0,0)"/>
<path d="" fill="#010202" transform="translate(0,0)"/>
<path d="" fill="#000000" transform="translate(0,0)"/>
<path d="" fill="#000200" transform="translate(0,0)"/>
<path d="" fill="#020402" transform="translate(0,0)"/>
<path d="" fill="#000000" transform="translate(0,0)"/>
<path d="" fill="#060303" transform="translate(0,0)"/>
<path d="" fill="#040102" transform="translate(0,0)"/>
<path d="" fill="#000000" transform="translate(0,0)"/>
<path d="" fill="#000000" transform="translate(0,0)"/>
<path d="" fill="#010000" transform="translate(0,0)"/>
<path d="" fill="#000402" transform="translate(0,0)"/>
<path d="" fill="#000000" transform="translate(0,0)"/>
<path d="" fill="#000000" transform="translate(0,0)"/>
<path d="" fill="#000003" transform="translate(0,0)"/>
<path d="" fill="#030101" transform="translate(0,0)"/>
<path d="" fill="#000000" transform="translate(0,0)"/>
<path d="" fill="#000000" transform="translate(0,0)"/>
<path d="" fill="#000000" transform="translate(0,0)"/>
<path d="" fill="#000000" transform="translate(0,0)"/>
<path d="" fill="#000000" transform="translate(0,0)"/>
<path d="" fill="#000000" transform="translate(0,0)"/>
<path d="" fill="#000000" transform="translate(0,0)"/>
<path d="" fill="#000102" transform="translate(0,0)"/>
<path d="" fill="#000000" transform="translate(0,0)"/>
<path d="" fill="#000100" transform="translate(0,0)"/>
<path d="" fill="#000000" transform="translate(0,0)"/>
<path d="" fill="#000000" transform="translate(0,0)"/>
<path d="" fill="#000000" transform="translate(0,0)"/>
<path d="" fill="#010200" transform="translate(0,0)"/>
<path d="" fill="#010000" transform="translate(0,0)"/>
<path d="" fill="#040405" transform="translate(0,0)"/>
<path d="" fill="#050305" transform="translate(0,0)"/>
<path d="" fill="#020100" transform="translate(0,0)"/>
<path d="" fill="#030201" transform="translate(0,0)"/>
<path d="" fill="#010300" transform="translate(0,0)"/>
<path d="" fill="#020204" transform="translate(0,0)"/>
<path d="" fill="#030102" transform="translate(0,0)"/>
<path d="" fill="#050304" transform="translate(0,0)"/>
<path d="" fill="#040302" transform="translate(0,0)"/>
<path d="" fill="#060505" transform="translate(0,0)"/>
<path d="" fill="#050205" transform="translate(0,0)"/>
</svg>
